<?xml version="1.0" encoding="UTF-8"?>
<svg id="_레이어_2" data-name="레이어 2" xmlns="http://www.w3.org/2000/svg" viewBox="0 0 245.92 245.92">
  <defs>
    <style>
      .cls-1 {
        fill: #9b1905;
      }

      .cls-2 {
        fill: #fff;
      }
    </style>
  </defs>
  <g id="_레이어_1-2" data-name="레이어 1">
    <g>
      <path class="cls-2" d="M209.51,240.92c-.42,0-.85-.01-1.28-.04l-185.08-12.03c-5.17-.34-9.9-2.67-13.32-6.56-3.42-3.9-5.12-8.89-4.78-14.06L17.07,23.15c.66-10.18,9.16-18.15,19.34-18.15.42,0,.85.01,1.28.04l185.08,12.03c5.17.34,9.9,2.67,13.32,6.56,3.42,3.9,5.12,8.89,4.78,14.06l-12.03,185.08c-.66,10.18-9.16,18.15-19.34,18.15Z"/>
      <path class="cls-1" d="M36.41,10h0c.32,0,.64.01.96.03l185.08,12.03c3.84.25,7.35,1.98,9.89,4.87,2.54,2.89,3.8,6.6,3.55,10.44l-12.03,185.08c-.49,7.55-6.79,13.47-14.35,13.47-.32,0-.64-.01-.96-.03l-185.08-12.03c-7.93-.52-13.95-7.38-13.44-15.31L22.06,23.47c.49-7.55,6.79-13.47,14.35-13.47M36.41,0C23.65,0,12.92,9.91,12.08,22.82L.05,207.91c-.87,13.45,9.32,25.06,22.77,25.94l185.08,12.03c.54.04,1.07.05,1.61.05,12.76,0,23.49-9.91,24.33-22.82l12.03-185.08c.87-13.45-9.32-25.06-22.77-25.94L38.01.05C37.48.02,36.94,0,36.41,0h0Z"/>
    </g>
  </g>
</svg>