<svg width="72" height="23" viewBox="0 0 72 23" fill="none" xmlns="http://www.w3.org/2000/svg">
<path fill-rule="evenodd" clip-rule="evenodd" d="M59.0292 4.84677L59.0252 4.84456C59.552 4.2694 60.1353 3.65856 60.7462 3.07086C60.0032 2.70854 59.3166 2.29786 58.6526 1.90056C57.2134 1.0397 55.8792 0.2417 54.3005 0.134908C53.0758 0.0591138 51.8501 0.261743 50.7152 0.72758C50.7152 0.72758 50.1014 -0.105536 48.2117 0.164436C46.3219 0.434408 40.5007 2.86627 35.5399 10.7967C31.0556 17.9657 33.1626 22.0765 36.3834 22.0322C39.8739 21.9837 43.1939 18.1028 44.3203 14.9033C45.4462 11.7036 44.1176 10.8368 43.0968 10.919C41.9687 11.0139 39.975 12.0179 38.8785 14.2367C37.7814 16.4556 37.7814 17.8223 37.7814 17.8223C38.2298 17.352 38.7176 16.9209 39.2393 16.5336C39.7085 16.167 40.2257 15.8662 40.7768 15.6393C40.9055 15.066 41.0975 14.5086 41.3481 13.9773C41.7451 13.1505 42.3735 12.29 43.1493 12.096C44.7251 11.7015 43.9702 14.5742 42.8122 16.4471C42.19 17.4469 39.9818 20.3385 38.0852 20.3385C36.1892 20.3385 35.8267 18.512 36.2254 16.7973C36.624 15.0825 37.1784 12.9143 39.9501 8.96595C42.7213 5.01761 45.7183 2.67644 47.4545 1.69569C49.2364 0.685398 49.962 1.12832 49.962 1.12832C49.962 1.12832 47.6866 2.52458 46.3913 4.21191C45.1554 5.82333 44.4152 7.63508 44.9888 8.523C45.5371 9.3688 47.463 9.38568 49.5865 6.32319C51.6829 3.29865 51.1561 1.49953 51.1561 1.49953C51.2939 1.45466 51.4351 1.41942 51.5779 1.39407C52.6004 1.25698 53.4191 1.52906 54.6844 2.17868C55.3016 2.4956 55.9074 2.90153 56.5545 3.33509C57.2969 3.83272 58.0942 4.3669 59.0252 4.84456L59.023 4.84677H59.0292ZM50.4385 1.73365C50.4385 1.73365 49.0891 2.27149 47.5194 4.00099C45.9504 5.73051 45.0351 7.67726 45.7121 8.19191C45.9718 8.38806 46.5703 8.42177 47.6589 7.44311C48.6622 6.57157 49.4499 5.47927 49.9597 4.25198C50.622 2.63721 50.4611 1.84557 50.4408 1.74445C50.4396 1.73833 50.4385 1.73474 50.4385 1.73365Z" fill="#E31D2E"/>
<path d="M61.7629 5.82655L61.7623 5.82762C65.4487 6.55739 68.6778 4.27319 70.3948 2.32854C71.0215 1.63263 71.5602 0.862697 72 0.0358887C71.218 0.849926 70.3428 1.56917 69.3932 2.17879L69.3824 2.17668C67.784 3.20173 65.5712 4.13188 63.4455 3.92729C62.9074 4.4841 62.3315 5.12739 61.7578 5.82553L61.7629 5.82655Z" fill="#E31D2E"/>
<path fill-rule="evenodd" clip-rule="evenodd" d="M63.0622 18.9298C62.7562 19.4191 62.4084 20.3577 63.4185 19.7734C64.6482 19.0626 66.4008 16.3988 66.4008 16.3988H67.1941C66.4714 17.512 65.6662 18.5695 64.7854 19.5625C63.5387 20.944 62.0182 22.199 60.9466 22.0745C59.6959 21.929 60.0883 20.286 60.0883 20.286C60.0883 20.286 58.2912 22.1842 57.0575 22.0556C55.3845 21.87 55.8949 19.803 55.8949 19.803C55.8949 19.803 53.9967 22.123 52.7144 22.0534C50.6936 21.9374 51.2024 19.4718 51.763 17.7466C52.0651 16.8206 52.3435 16.093 52.3435 16.093C52.3435 16.093 52.143 16.1457 51.7105 16.209C51.4847 16.2406 51.0776 16.2638 51.0776 16.2638C50.614 17.0815 50.1087 17.8749 49.5633 18.6408C48.8908 19.5351 46.0327 22.6081 44.3451 21.9923C42.789 21.4228 43.3033 19.0395 44.2101 17.1412C45.533 14.3803 49.2533 10.413 51.3983 10.934C53.6234 11.4739 51.4491 15.5319 51.4491 15.5319C51.4491 15.5319 51.4491 15.5467 51.4722 15.5572C51.6128 15.5826 51.7574 15.5746 51.894 15.534C52.1724 15.4777 52.4445 15.3966 52.7082 15.2915C52.7082 15.2915 54.9441 10.6091 57.4137 7.54665C59.8834 4.48415 64.817 -0.784524 66.7508 0.491515C67.2234 0.805781 67.0083 1.88567 66.3714 3.19756C66.084 3.28834 65.7927 3.36437 65.498 3.42535C65.8514 2.83953 66.1185 2.20591 66.2912 1.54399C66.582 -0.0378832 62.8872 3.29669 60.2464 6.8865C58.6582 9.04905 57.2472 11.3365 56.0282 13.7265C56.5053 13.4365 56.9604 13.1123 57.3906 12.7563C58.5684 11.7793 59.688 10.7342 60.7439 9.62626C61.7568 8.58267 62.707 7.47975 63.5895 6.32335C63.8718 6.31003 64.1536 6.28117 64.4331 6.23685C63.4676 7.54603 62.4157 8.78899 61.2842 9.95741C61.1905 10.0506 61.0967 10.1446 61.0025 10.2392C60.029 11.2139 59.0026 12.2416 58.0992 13.003C57.2167 13.7577 56.2862 14.4538 55.3128 15.0869C55.3128 15.0869 52.9928 19.7439 54.2586 20.0434C54.9966 20.2206 56.4561 17.9743 56.4561 17.9743C56.4561 17.9743 58.3544 15.07 59.5062 13.756C61.0623 11.9843 62.41 10.9635 63.7493 10.9361C64.5341 10.9213 64.996 11.7587 64.996 11.7587L65.3653 11.187H67.6367C67.6367 11.187 63.3953 18.3835 63.0554 18.9255L63.0622 18.9298ZM64.4856 12.5643C64.5133 12.5155 64.5358 12.4639 64.5533 12.4103C64.5426 12.3261 64.5031 12.2481 64.4415 12.1893C64.38 12.1306 64.3004 12.0947 64.2157 12.0877C63.8656 12.0708 63.3846 12.1383 62.13 13.5282C61.0871 14.6791 60.19 15.9542 59.4594 17.3247C58.7406 18.6387 58.4492 19.6174 58.8625 19.8705C58.9969 19.9394 59.1516 19.9552 59.2973 19.9147C59.5779 19.8473 59.8941 19.5857 60.3769 19.0268C60.5575 18.8174 60.7546 18.5375 60.9799 18.2177L60.9821 18.2147C61.0375 18.1361 61.0945 18.0552 61.1532 17.9722C61.9843 16.8417 64.0723 13.2814 64.4856 12.5622V12.5643ZM51.4384 14.0745C51.6495 13.5261 51.9149 12.4504 51.3605 12.0286C50.7637 11.5793 49.251 12.6318 49.2364 13.7159C49.2217 14.8 50.3057 15.321 50.5655 15.3906C50.7128 15.4307 50.7637 15.4243 50.8354 15.3062C51.0646 14.9115 51.2662 14.5014 51.4384 14.0787V14.0745ZM50.2888 16.0887C49.9122 15.9147 49.561 15.6905 49.2448 15.4222C48.9264 15.1562 48.6599 14.8337 48.4583 14.471C48.4408 14.4414 48.4233 14.4608 48.4047 14.4815C48.4007 14.4858 48.3968 14.4902 48.3928 14.4942L48.3923 14.4946C48.3685 14.5184 48.2743 14.6125 47.4646 15.7977C46.6504 16.9893 45.4105 19.4444 46.5369 19.8641C47.2579 20.132 48.4583 18.8686 49.1161 18.0313C49.5616 17.4472 49.9653 16.8327 50.3249 16.1921C50.3588 16.1204 50.3249 16.1035 50.2888 16.0887Z" fill="#E31D2E"/>
<path d="M37.5011 5.70923H35.3408L34.1201 7.68342H36.2798L37.5011 5.70923Z" fill="#E31D2E"/>
<path fill-rule="evenodd" clip-rule="evenodd" d="M32.43 11.1109H33.2146C33.2146 11.1109 29.2494 16.8415 27.0073 16.5799C25.7566 16.4344 26.1278 14.8926 26.1278 14.8926C26.1278 14.8926 24.3667 16.949 22.7532 16.5378C21.2894 16.1623 22.2343 13.7305 22.2343 13.7305C22.2094 13.7406 22.1174 13.829 21.9714 13.9692C21.1417 14.7665 18.5691 17.2386 16.6767 16.5103C14.3566 15.6118 15.5568 12.6231 15.9996 11.7247C16.3751 10.9674 16.7906 10.2293 16.7906 10.2293C16.7906 10.2293 16.4341 10.3305 16.2106 10.3811C15.987 10.4317 15.6517 10.4971 15.6517 10.4971C15.6517 10.4971 14.5507 12.2878 13.8779 13.18C13.205 14.0722 10.3429 17.1431 8.65768 16.5314C6.97246 15.9198 7.3922 13.5618 8.33709 11.6804C9.87257 8.64319 13.5172 4.90997 15.7191 5.471C17.9211 6.03206 16.1009 9.63235 16.1009 9.63235C16.1009 9.63235 16.5417 9.68932 17.5984 8.96796C18.0348 8.67103 18.5106 8.23029 19.0182 7.76013C20.2843 6.58742 21.7484 5.23131 23.2931 5.46468C24.3139 5.61864 25.2652 6.66691 23.9638 8.65584C23.542 9.28855 22.8481 9.8665 22.3124 9.30126C21.9791 8.95323 22.2702 8.30996 22.6203 7.87125C22.7572 7.69243 22.9359 7.55009 23.1408 7.45665C23.3457 7.36326 23.5704 7.32165 23.7951 7.33548C23.7951 7.33548 24.1536 6.5108 23.2404 6.52768C22.5001 6.54247 20.6271 8.26563 19.5705 10.0078C18.6129 11.6129 17.147 14.3379 18.6129 14.9327C19.9648 15.479 22.538 12.4249 23.7297 10.824C24.9214 9.22317 27.6338 5.59544 29.9117 5.44991C30.6963 5.39929 31.1624 6.11432 31.1624 6.11432L31.426 5.69244H33.6996C33.6996 5.69244 29.4181 12.8615 29.0828 13.3993C28.8191 13.8211 28.469 14.7766 29.4392 14.243C30.4094 13.7094 32.43 11.1109 32.43 11.1109ZM27.2731 12.5388C28.1927 11.2733 30.7279 6.86515 30.7279 6.86515C30.7171 6.78085 30.6777 6.70282 30.6163 6.6441C30.5548 6.58538 30.4751 6.54947 30.3904 6.54247C30.0403 6.52559 29.4582 6.64371 28.2813 8.09901C27.1043 9.55432 26.227 10.7122 25.5731 11.9166C24.8518 13.2306 24.5375 14.1586 24.9509 14.4096C25.0853 14.4775 25.2401 14.4933 25.3854 14.4539C25.6554 14.3864 26.0076 14.1164 26.4906 13.5596C26.7184 13.3002 26.9757 12.9501 27.2773 12.5388H27.2731ZM15.6875 6.56986C15.0906 6.1185 13.5783 7.1731 13.5636 8.25722C13.5488 9.34129 14.9345 9.67876 15.1138 9.68723C15.1538 9.69773 15.1962 9.6948 15.2343 9.67876C15.2725 9.66273 15.3043 9.63455 15.3247 9.59864C15.487 9.28082 15.6327 8.95492 15.7613 8.62208C15.9722 8.07372 16.2359 6.99801 15.6811 6.57618L15.6875 6.56986ZM14.7806 10.3727C14.369 10.244 13.9757 10.0633 13.61 9.83488C13.2533 9.60451 12.9626 9.28545 12.7663 8.9089C12.7479 8.87768 12.728 8.90089 12.7092 8.92274C12.7064 8.92595 12.7036 8.92917 12.7009 8.93211C12.6799 8.95532 12.5575 9.11561 11.7455 10.3073C10.9334 11.499 9.7291 13.9372 10.8575 14.3548C11.5788 14.6226 12.7916 13.3551 13.4476 12.5177C13.9418 11.8641 14.3988 11.1832 14.8164 10.4781C14.8438 10.4064 14.8164 10.3896 14.7763 10.3769L14.7806 10.3727Z" fill="#E31D2E"/>
<path d="M31.19 22.5848C29.5127 21.4238 27.5042 20.8378 25.4657 20.9143C24.9139 20.9292 24.3735 21.0741 23.8882 21.3372C23.403 21.6004 22.9867 21.9743 22.6733 22.4287C21.8042 20.9122 20.0874 19.982 17.432 20.0032C15.1837 20.0286 12.9441 20.584 10.8368 21.1067C8.92303 21.5813 7.11834 22.0289 5.51522 22.0279C2.27978 22.0279 -0.0761477 19.9947 0.00188263 16.3859C0.141118 10.0585 5.48569 4.36375 9.49313 1.79479C11.79 0.318381 13.7114 -0.116105 14.9769 0.0252082C15.8944 0.126448 16.9975 1.18735 16.3015 2.75024C15.2786 5.03868 13.8654 4.84675 13.9181 3.7542C13.9401 3.46919 14.0294 3.19345 14.1786 2.94963C14.3278 2.70581 14.5327 2.50086 14.7765 2.35161C15.0353 2.21077 15.3256 2.13818 15.6202 2.14069C15.8311 1.96985 15.9766 0.719121 14.3315 1.13041C12.6864 1.54169 10.6827 3.15942 8.79289 5.24748C6.90305 7.33553 3.96291 11.2797 3.23523 15.4221C2.89567 17.3435 3.12135 20.8468 7.6645 20.8089C9.41606 20.7945 11.5473 20.2631 13.8421 19.6909C16.6013 19.0029 19.597 18.256 22.4539 18.2778C24.276 18.2702 26.0657 18.7603 27.6298 19.6952C28.9838 20.5389 30.6058 21.7453 31.1816 22.5763L31.19 22.5848Z" fill="#E31D2E"/>
</svg>
