<svg width="891" height="893" viewBox="0 0 891 893" fill="none" xmlns="http://www.w3.org/2000/svg">
<circle cx="680.501" cy="645.5" r="210.5" fill="url(#paint0_radial_906_19)"/>
<circle cx="203.501" cy="47.5" r="47.5" fill="url(#paint1_radial_906_19)"/>
<path d="M702.001 473C774.35 473 833.001 414.349 833.001 342C833.001 269.651 774.35 211 702.001 211C629.652 211 571.001 269.651 571.001 342C571.001 414.349 629.652 473 702.001 473Z" stroke="white" stroke-width="3" stroke-miterlimit="10"/>
<path d="M702.001 381.67C723.91 381.67 741.671 363.909 741.671 342C741.671 320.092 723.91 302.331 702.001 302.331C680.093 302.331 662.332 320.092 662.332 342C662.332 363.909 680.093 381.67 702.001 381.67Z" stroke="white" stroke-width="3" stroke-miterlimit="10"/>
<path d="M702.001 457.62C765.856 457.62 817.621 405.855 817.621 342C817.621 278.145 765.856 226.38 702.001 226.38C638.146 226.38 586.381 278.145 586.381 342C586.381 405.855 638.146 457.62 702.001 457.62Z" stroke="white" stroke-width="3" stroke-miterlimit="10"/>
<path d="M310.903 181.319C214.113 165.059 122.468 230.341 106.208 327.13C89.9477 423.92 155.23 515.565 252.019 531.825C348.809 548.085 440.454 482.803 456.714 386.014C472.974 289.224 407.692 197.579 310.903 181.319Z" stroke="#E092A0" stroke-width="3" stroke-miterlimit="10"/>
<path d="M297.171 263.055C245.523 254.378 196.62 289.213 187.944 340.861C179.267 392.509 214.102 441.412 265.75 450.089C317.399 458.765 366.301 423.93 374.978 372.282C383.655 320.634 348.819 271.731 297.171 263.055Z" stroke="#E092A0" stroke-width="3" stroke-miterlimit="10"/>
<path d="M296.246 268.565C247.642 260.4 201.62 293.182 193.455 341.787C185.289 390.392 218.072 436.413 266.677 444.579C315.282 452.744 361.303 419.962 369.468 371.357C377.634 322.752 344.851 276.731 296.246 268.565Z" stroke="#E092A0" stroke-width="3" stroke-miterlimit="10"/>
<path d="M279.961 365.504C275.028 364.675 271.701 360.004 272.529 355.072C273.358 350.139 278.029 346.811 282.962 347.64C287.895 348.469 291.222 353.14 290.393 358.073C289.564 363.005 284.894 366.332 279.961 365.504Z" fill="white" stroke="#E092A0"/>
<path d="M157.048 221.571C151.843 220.696 146.915 224.207 146.04 229.412C145.166 234.618 148.676 239.546 153.882 240.421C159.087 241.295 164.016 237.784 164.89 232.579C165.764 227.374 162.254 222.445 157.048 221.571Z" stroke="#E092A0" stroke-width="3" stroke-miterlimit="10"/>
<path d="M123.339 163.158C106.355 160.305 90.2733 171.76 87.42 188.745C84.5667 205.729 96.0222 221.811 113.007 224.664C129.991 227.518 146.073 216.062 148.926 199.078C151.779 182.093 140.324 166.011 123.339 163.158Z" stroke="#E092A0" stroke-width="3" stroke-miterlimit="10"/>
<path d="M120.191 181.895C113.555 180.78 107.272 185.256 106.157 191.892C105.042 198.528 109.518 204.812 116.154 205.927C122.79 207.042 129.074 202.566 130.189 195.929C131.303 189.293 126.827 183.01 120.191 181.895Z" stroke="#E092A0" stroke-width="3" stroke-miterlimit="10"/>
<path d="M158.181 467.065C149.373 465.585 141.032 471.526 139.553 480.335C138.073 489.143 144.014 497.484 152.822 498.963C161.631 500.443 169.971 494.502 171.451 485.694C172.931 476.885 166.99 468.545 158.181 467.065Z" stroke="#E092A0" stroke-width="3" stroke-miterlimit="10"/>
<path d="M11.0087 628.071L406.875 230.675" stroke="#E092A0" stroke-width="3" stroke-miterlimit="10"/>
<path d="M281.461 356.572L118.173 193.911" stroke="#E092A0" stroke-width="3" stroke-miterlimit="10"/>
<path d="M71.6747 590.088L167.505 493.892" stroke="#E092A0" stroke-width="3" stroke-miterlimit="10"/>
<path d="M29.2197 623.322L22.4461 616.585" stroke="#E092A0" stroke-width="3" stroke-miterlimit="10"/>
<path d="M33.4346 619.088L26.6704 612.353" stroke="#E092A0" stroke-width="3" stroke-miterlimit="10"/>
<path d="M37.6484 614.863L30.8858 608.119" stroke="#E092A0" stroke-width="3" stroke-miterlimit="10"/>
<path d="M41.8633 610.629L35.1006 603.885" stroke="#E092A0" stroke-width="3" stroke-miterlimit="10"/>
<path d="M46.0879 606.397L39.3159 599.652" stroke="#E092A0" stroke-width="3" stroke-miterlimit="10"/>
<path d="M50.3027 602.163L43.5307 595.417" stroke="#E092A0" stroke-width="3" stroke-miterlimit="10"/>
<path d="M54.5176 597.929L47.7456 591.184" stroke="#E092A0" stroke-width="3" stroke-miterlimit="10"/>
<path d="M58.7324 593.696L51.9604 586.95" stroke="#E092A0" stroke-width="3" stroke-miterlimit="10"/>
<path d="M62.9473 589.461L56.1737 582.725" stroke="#E092A0" stroke-width="3" stroke-miterlimit="10"/>
<path d="M67.1621 585.237L60.3995 578.493" stroke="#E092A0" stroke-width="3" stroke-miterlimit="10"/>
<path d="M71.377 581.003L64.6143 574.259" stroke="#E092A0" stroke-width="3" stroke-miterlimit="10"/>
<path d="M75.6016 576.771L68.8296 570.026" stroke="#E092A0" stroke-width="3" stroke-miterlimit="10"/>
<path d="M79.8164 572.537L73.0444 565.792" stroke="#E092A0" stroke-width="3" stroke-miterlimit="10"/>
<path d="M84.0312 568.303L77.2593 561.558" stroke="#E092A0" stroke-width="3" stroke-miterlimit="10"/>
<path d="M88.2461 564.07L81.4741 557.324" stroke="#E092A0" stroke-width="3" stroke-miterlimit="10"/>
<path d="M92.4609 559.836L85.6873 553.099" stroke="#E092A0" stroke-width="3" stroke-miterlimit="10"/>
<path d="M96.6748 555.611L89.9028 548.865" stroke="#E092A0" stroke-width="3" stroke-miterlimit="10"/>
<path d="M100.89 551.377L94.127 544.633" stroke="#E092A0" stroke-width="3" stroke-miterlimit="10"/>
<path d="M105.105 547.143L98.3428 540.399" stroke="#E092A0" stroke-width="3" stroke-miterlimit="10"/>
<path d="M109.329 542.911L102.557 536.165" stroke="#E092A0" stroke-width="3" stroke-miterlimit="10"/>
<path d="M113.544 538.677L106.772 531.931" stroke="#E092A0" stroke-width="3" stroke-miterlimit="10"/>
<path d="M117.759 534.443L110.987 527.697" stroke="#E092A0" stroke-width="3" stroke-miterlimit="10"/>
<path d="M121.975 530.209L115.201 523.473" stroke="#E092A0" stroke-width="3" stroke-miterlimit="10"/>
<path d="M126.189 525.975L119.416 519.239" stroke="#E092A0" stroke-width="3" stroke-miterlimit="10"/>
<path d="M12.5923 618.646C7.38709 617.772 2.45853 621.282 1.58407 626.488C0.709612 631.693 4.22039 636.622 9.42564 637.496C14.6309 638.37 19.5595 634.86 20.4339 629.654C21.3084 624.449 17.7976 619.521 12.5923 618.646Z" fill="#E092A0"/>
<path d="M119.333 187.011C115.522 186.371 111.914 188.941 111.274 192.752C110.634 196.562 113.204 200.17 117.014 200.81C120.825 201.451 124.433 198.88 125.073 195.07C125.713 191.259 123.143 187.651 119.333 187.011Z" fill="#E092A0"/>
<path d="M163.045 438.105C138.242 433.938 114.758 450.667 110.591 475.47C106.425 500.272 123.153 523.757 147.956 527.923C172.759 532.09 196.243 515.361 200.41 490.559C204.577 465.756 187.848 442.272 163.045 438.105Z" stroke="#E092A0" stroke-width="3" stroke-miterlimit="10"/>
<path d="M537.34 856.549L557.769 819.859L548.185 812.324C549.553 773.648 510.052 732.56 452.958 716.271C416.638 705.9 381.066 707.808 355.03 719.213L341.513 711.791C341.513 711.791 325.194 725.521 324.038 726.044C324.038 726.044 324.913 734.638 325.584 741.273C321.807 746.192 318.871 751.625 316.931 757.523L306.978 752.236L305.012 767.986L314.388 778.068C314.523 780.223 314.789 782.391 315.177 784.556L307.536 785.32L313.296 800.628L323.015 806.246C325.965 811.676 329.621 816.983 333.911 822.097L331.257 829.422L344.512 842.743L354.745 841.673C358.08 844.191 361.59 846.605 365.259 848.899L365.455 858.674L382.218 866.959L392.729 862.955L391.428 862.209C395.701 863.931 400.108 865.521 404.625 866.95L408.796 874.878L427.23 878.529L431.173 873.193C436.351 874.007 441.472 874.565 446.513 874.879L453.349 880.589L469.707 880.733L468.181 874.781C474.155 874.337 479.955 873.524 485.507 872.357L496.472 876.918L515.597 870.528L508.124 865.172C514.411 862.363 520.121 858.988 525.151 855.093L537.339 856.534L537.34 856.549ZM436.22 762.185C442.995 764.118 449.428 766.474 455.476 769.18L432.144 795.488C430.491 794.914 428.794 794.359 427.055 793.867C406.693 788.055 387.103 790.585 376.808 799.169L342.112 779.677C356.042 758.393 395.215 750.474 436.227 762.176L436.22 762.185ZM386.507 804.621C394.492 799.607 407.667 798.425 421.325 802.322C422.588 802.682 423.823 803.075 425.023 803.508L411.56 818.68L386.506 804.614L386.507 804.621ZM403.64 827.616L393.824 838.664C383.203 831.926 377.151 822.542 379.132 814.201L403.639 827.608L403.64 827.616ZM418.85 835.937L437.285 846.023C429.522 848.389 419.411 848.367 409.027 845.4C408.294 845.182 407.561 844.972 406.841 844.73L418.851 835.944L418.85 835.937ZM429.02 828.49L445.44 816.476C450.445 822.076 452.69 828.353 451.058 834.09C450.512 836.015 449.563 837.75 448.264 839.291L429.02 828.49ZM337.353 791.343L370.027 809.229C366.773 820.733 375.049 833.85 389.813 843.204L381.492 852.582C351.502 837.081 333.237 812.855 337.353 791.343ZM407.487 862.833C401.508 861.128 395.786 859.091 390.369 856.771L400.994 849C403.972 850.249 407.106 851.35 410.373 852.28C424.912 856.444 439.054 856.332 449.701 852.805L471.662 864.83C453.792 869.797 430.937 869.536 407.487 862.833ZM505.707 836.447C502.854 846.426 495.351 854.345 484.76 859.781L461.149 846.526C464.17 843.869 466.324 840.653 467.374 836.959C470.004 827.744 465.242 817.498 455.674 808.979L484.862 787.625C501.799 802.424 510.299 820.342 505.706 836.432L505.707 836.447Z" fill="url(#paint2_linear_906_19)"/>
<defs>
<radialGradient id="paint0_radial_906_19" cx="0" cy="0" r="1" gradientUnits="userSpaceOnUse" gradientTransform="translate(680.501 645.5) rotate(90) scale(210.5)">
<stop stop-color="#95293C" stop-opacity="0.9"/>
<stop offset="1" stop-color="white" stop-opacity="0.9"/>
</radialGradient>
<radialGradient id="paint1_radial_906_19" cx="0" cy="0" r="1" gradientUnits="userSpaceOnUse" gradientTransform="translate(203.501 47.5) rotate(90) scale(47.5)">
<stop stop-color="#2F0D13"/>
<stop offset="1" stop-color="#95293C"/>
</radialGradient>
<linearGradient id="paint2_linear_906_19" x1="484.2" y1="729.709" x2="373.497" y2="859.244" gradientUnits="userSpaceOnUse">
<stop offset="0.36541" stop-color="#2F0D13"/>
<stop offset="1" stop-color="#95293C"/>
</linearGradient>
</defs>
</svg>
