<?xml version="1.0" encoding="utf-8"?>
<!-- Generator: Adobe Illustrator 19.2.1, SVG Export Plug-In . SVG Version: 6.00 Build 0)  -->
<svg version="1.1" id="layer" xmlns="http://www.w3.org/2000/svg" xmlns:xlink="http://www.w3.org/1999/xlink" x="0px" y="0px"
	 viewBox="0 0 652 652" style="enable-background:new 0 0 652 652;" xml:space="preserve">
<style type="text/css">
	.st0{fill:#C10230;}
</style>
<g id="Dr_Pepper_Square">
	<g id="back_logo">
		<g id="DDP_logo_1_">
			<g>
				<g>
					<g>
						<g>
							<path class="st0" d="M465.9,422.9c2.3-0.8,4.3,0.7,4.5,3.4c0.1,2.7-1.6,5.6-3.9,6.5c-2.3,0.8-4.3-0.7-4.5-3.5
								C461.8,426.6,463.6,423.8,465.9,422.9"/>
							<path class="st0" d="M416.8,407.4l0.4,8.4c-1.3-0.6-3.4-0.4-5.4,0.2l-7.2,2.4c0,1.1,0.4,9.6,0.6,10.7
								c2.4-0.9,3.4-1.2,5.1-1.9c1.1-0.4,3.2-1.8,3.7-2.7l0.5,9.9c-0.8-0.3-2-1-4-0.4c-1.6,0.4-2.6,0.8-5,1.6l0.6,10.8l8.4-2.9
								c2.5-1.2,4.2-2.9,4.9-3.7l0.4,8.9l-23.5,8.5c0.6-1.4,1.3-3.8,1.1-7.7c0,0-0.8-19.5-1.5-28.8c-0.2-2.2-0.8-4.3-1.7-5.3
								L416.8,407.4z"/>
							<path class="st0" d="M423.2,438.7c1.4,1.3,5.8,1.8,8.2,1c1.8-0.7,2.8-2.2,2.8-3.4c-0.1-2-1.3-3.1-5.1-3.9
								c-4.1-0.8-6.6-2.5-6.8-6.6c-0.3-6.2,4.6-10.4,10.6-12c2-0.5,4.8-0.5,6.3-0.5l0.3,6.6c-1.3-0.7-4.3-1-6.2-0.3
								c-2,0.7-3,2.1-2.7,3.6c0.3,1.4,2.4,2,6.6,3.1c3.3,0.9,4.7,2.9,4.9,6c0.3,6.4-4,10.7-10.3,12.9c-2.2,0.8-7.1,1.4-8.2,1.3
								L423.2,438.7z"/>
							<path class="st0" d="M453.4,401.8c0,1.8-0.1,1.5,0.1,5.2l1.7-0.7c2.1-0.9,3.5-2,3.5-2l0.2,6.5l-5.2,1.8l0.8,14.2
								c0.2,3.1,2.1,3.9,4.3,3.4l0.2,4.3c-1.6,1.2-3.6,2.4-5.3,3c-2.2,0.8-4,0.5-5.5-0.9c-1.1-1.1-1.6-3.4-1.8-6.3l-0.8-14.7
								l-3.6,1.2l5-12.2L453.4,401.8z"/>
							<path class="st0" d="M488.6,424.3l-12.3,4.3c0,0,1.7-3.4,1.5-7.2l-1.1-20.6c-0.2-4.3-2.8-5.2-3.7-5.9
								c0.4-0.1,11.1-9.6,11.1-9.6l1.7,33.3C486.1,423,488.6,424.3,488.6,424.3"/>
							<path class="st0" d="M522.8,389.8c-1.8-1.6-2.8-3.2-2.9-5.8c-0.3-5.1,3.4-11.7,11.2-14.6c6.1-2.2,11.1-0.4,11.4,5.7
								c0.2,3.6-2.6,7.1-4.9,9.6c0,0,1.6,0.4,2.5,1c2.7,1.6,4.3,3.7,4.5,7.2c0.2,5.1-3.4,13.4-12.2,16.5c-6.8,2.5-12.7,0.1-13-6.3
								c-0.2-4.5,3.3-9.8,5.9-12C525.2,391.2,524,390.7,522.8,389.8 M527,401.3c0.2,3.1,2.6,4.1,5,3.2c2.5-0.9,4.4-3.5,4.3-6
								c-0.1-2.9-2.1-4-5.7-5.3C527.9,396.2,526.9,399.2,527,401.3 M535,376.7c-0.1-2.6-2-3.5-3.8-2.8c-2.2,0.8-3.5,2.8-3.4,5.1
								c0.1,2.3,2.4,3.7,4.6,4.3C534.4,380.6,535.1,378.4,535,376.7"/>
							<path class="st0" d="M493.9,400.1c-1.8-1.6-2.8-3.2-2.9-5.8c-0.3-5.1,3.4-11.7,11.2-14.6c6.1-2.2,11-0.4,11.3,5.7
								c0.2,3.6-2.6,7.1-4.9,9.6c0,0,1.7,0.4,2.5,1c2.7,1.6,4.3,3.7,4.5,7.2c0.3,5.1-3.4,13.4-12.1,16.5c-6.8,2.4-12.7,0.1-13-6.3
								c-0.2-4.5,3.3-9.8,5.9-12C496.3,401.5,495.1,401.1,493.9,400.1 M498.1,411.6c0.2,3,2.6,4.1,5,3.2c2.5-0.9,4.4-3.5,4.2-6
								c-0.2-2.9-2.1-4-5.7-5.3C499.1,406.5,498,409.5,498.1,411.6 M506.1,387.1c-0.1-2.6-2-3.5-3.8-2.8c-2.2,0.8-3.5,2.8-3.4,5.1
								c0.1,2.3,2.4,3.7,4.6,4.3C505.5,391,506.2,388.7,506.1,387.1"/>
							<path class="st0" d="M548.9,392.8c2.1,1.7,5.2,2.5,8.5,1.4c3.5-1.2,5.8-4.9,5.5-9.2c-0.2-4-2.5-5.3-5.4-4.2
								c-2.5,0.9-4,3.4-4.6,4.4l-3.7-1.1l-0.5-20.3l15-5.4c2.1-0.8,3.7-1.6,4.6-2.4l0.2,8.6l-13.5,4.8l0.2,7.7
								c1.3-1.3,3.5-2.8,5.9-3.7c7.3-2.6,10.8,2.3,11.1,7.7c0.4,8.3-5.9,16-13.4,18.7c-3.9,1.4-7.1,1.1-9.5,0.7L548.9,392.8z"/>
						</g>
					</g>
					<g>
						<g>
							<path class="st0" d="M22.3,263.2l11.1,212.1c0.9,17.6-0.8,33.2-9.1,51.1c5.8-2.1,62.6-22.2,76.2-27.3
								c-10-9.1-11.9-22.2-12.4-32.4l-5-95.6c17.4-2.1,44.4-13.6,60.6-24.7c46.2-31.7,58.6-67.2,55.3-105.1
								c-3.8-45-37-82.9-89.2-80.1c-15.8,0.9-33.3,5.3-52.5,13.4C-7.8,202.2-68.3,270.9-70.5,357.7c-1.3,51,20.7,103.7,55,130.5
								c10.3,8,18.7,11.4,21.6,12.2c-47.5-39.5-54-101.1-50.2-135.7c9.1-85.2,71.3-137,113.3-150.1c39.2-12.2,74.8,0.4,77.1,43.9
								c2.2,42.5-22.2,69.8-45.9,80.9c-6.6,3.1-13.5,5.2-18.6,5.9l-6.2-118.1C56.6,233.9,29.5,253.8,22.3,263.2"/>
							<path class="st0" d="M439.9,309.2c0.7,36.6,25.4,61.8,60,51.9c23-6.5,45-29.7,53.1-47.3c0.6,11.3-2.8,20.5-5.9,26.5
								c3.9-1.4,40-14.6,45.6-16.6c-5.4-6.8-6.7-17-7.2-27.1c-0.2-3.4-1.1-18.9-1.9-36.2c0.1-17.9,5.9-28,11.1-31.4
								c5.9-3.8,14.4-2.4,16.3,5.2c1.2,4.7-0.3,11-5.6,14.7c17.1,4.6,34.7-7.4,33-29.6c-1.5-20-18.8-28.1-32.8-23.8
								c-10.7,3.3-20.4,13-23.9,26.7c-0.4-9.7-0.8-16.2-0.8-16.2l-41.5,15.2c3.9,3,7.3,9,7.9,18.8l2.3,44.2
								c-5.4,21.3-25.2,45.1-41.9,48.9c-16.1,3.6-26.8-2.9-32-15.2c11.2,1.2,20,0.1,28.9-3.5c17.4-6.9,32.2-26.8,29.9-50.9
								c-2.3-23.6-22.6-34.8-45.9-27.4C455.8,246.8,439.3,276.9,439.9,309.2 M487.9,257.3c11.1-2.2,14.3,8.5,14.4,15.5
								c0.1,9.8-3.8,20.3-14.5,26.1c-5,2.7-10.7,3.2-15.4,3C469.1,273.8,479.2,258.9,487.9,257.3"/>
							<path class="st0" d="M288.7,432.7c23.6-15.6,35.2-47.7,33.6-78.9c-2-37-25.5-46.4-42.2-40.8c-10.5,3.6-20.3,8.4-27,20.9
								l-0.5-10.2l-42.5,15.5c3.9,3,7.3,9,7.8,18.8c0.2,3.6,1.3,25.1,2.4,49c-5.8,20.5-26.4,40.7-42.6,44.3
								c-16.1,3.6-26.8-2.9-32-15.2c11.2,1.2,20,0,28.9-3.5c17.4-6.9,32.2-26.8,29.9-50.9c-2.3-23.6-22.6-34.8-45.9-27.4
								c-33.1,10.5-49.7,40.6-49,73c0.7,36.7,25.4,61.7,60,51.9c22.7-6.4,45.4-25.7,52.2-41.4c2.2,42.9,2.5,48.7,2.5,49.4
								c0.4,6.7-0.8,24.3-5.1,32.9l48.5-17.7c-5.3-8-6.8-17.8-7.3-27.1l-1.6-31.7C269,441.7,280.5,438.1,288.7,432.7 M157.7,375.4
								c11.1-2.2,14.3,8.5,14.4,15.5c0.1,9.8-3.8,20.3-14.5,26.1c-5,2.7-10.7,3.2-15.4,3C139,392,149.1,377.1,157.7,375.4
								 M268.9,345.6c11.1-1.8,17.3,7.5,18,21.1c0.9,17.5-3.2,35.9-13.8,46.9c-3.8,4-10.1,7.2-15.3,8.6l-3.5-67.1
								C259,350.5,263.1,346.6,268.9,345.6"/>
							<path class="st0" d="M400.4,392.2c23.5-15.6,35.6-45.3,33.7-77.4c-2.3-39-24.3-47.8-42.2-41.9c-13,4.3-19.6,13.2-26.1,23.2
								l-0.7-12.9l-42.5,15.5c3.9,3,7.1,9,7.6,18.8l6.8,129.8c0.6,11.7-1.4,25.2-4.9,32.5c0,0,42.6-15.5,48.2-17.5
								c-5.3-8-6.8-17.8-7.3-27.1l-1.7-32.1C381.5,401.2,392.3,397.6,400.4,392.2 M382.1,305.2c11.1-1.8,16.4,9,17.1,22.6
								c0.9,17.5-2.5,34.4-13.9,45.8c-3.9,3.9-9.8,6.6-15,8.1l-3.5-66.9C371,310.4,376.3,306.2,382.1,305.2"/>
							<path class="st0" d="M372.2,166.3l3.5,66c0.5,9.6,1,21.4-3.9,34.4c3.9-1.4,40-14.6,45.6-16.6c-5.4-6.8-6.8-17-7.3-27.1
								c-0.2-3.4-0.9-18.9-1.7-36.2c-1-19.4,5.3-27.1,11.1-31.4c5.5-4.2,14.4-2.4,16.3,5.2c1.2,4.7-0.3,11-5.5,14.7
								c17.1,4.6,34.8-7.4,33.1-29.6c-1.5-20-18.8-28.1-32.8-23.8c-10.8,3.3-20.5,13-23.9,26.7c-0.5-9.7-0.8-16.2-0.8-16.2
								l-41.5,15.2C368.2,150.6,371.7,156.5,372.2,166.3"/>
							<path class="st0" d="M208.1,167.9c0.7,11.1,5.8,111.8,6.1,116.4c0.6,9.9,2.4,23.8-6.5,40.8c8.1-2.8,64.3-22.5,78.9-28.5
								c40.8-16.6,72.7-56.4,69.8-116.6c-3.1-63.1-46.3-82.5-94-66.7c-12.8,4.2-57.7,21-67.7,24.3
								C202,142.3,207.1,150.7,208.1,167.9 M281.8,139.1c20.4,4.8,27.9,29.4,28.8,53.5c1,27.4-8,60.4-29.3,76.1
								c-6.4,4.7-15.4,8.8-21.9,10.8c-0.3-4.9-6.5-122.4-7.1-132.9C259.9,141.9,271.5,136.7,281.8,139.1"/>
							<g>
								<path class="st0" d="M623.7,315.5c-2,3.2-4.5,5.4-7.8,6.5c-3.4,1.2-6.4,1.1-9.1-0.5c-2.7-1.6-4.3-4.1-5-7.6
									c-0.6-3.6,0.1-7.1,2.2-10.4c2-3.1,4.5-5.2,7.6-6.3c3.3-1.2,6.3-1,9,0.6c2.7,1.6,4.4,4.1,5,7.5
									C626.4,308.8,625.7,312.2,623.7,315.5z M605.6,305c-1.5,2.7-2.1,5.4-1.6,8.2c0.5,2.9,1.8,5,4.1,6.2c2.3,1.3,4.7,1.5,7.4,0.5
									c2.7-1,4.8-2.8,6.4-5.5c1.6-2.7,2.1-5.5,1.6-8.3c-0.4-2.8-1.8-4.8-4.1-6.1c-2.3-1.4-4.8-1.5-7.5-0.6
									C609.4,300.4,607.2,302.2,605.6,305z M609.8,318.4l-2.3-13.8c0.8-0.3,2.1-0.8,3.7-1.3c1.6-0.6,2.5-0.9,2.7-1
									c1.1-0.3,2-0.4,2.7-0.2c1.3,0.3,2.1,1.1,2.3,2.6c0.2,1.2,0,2.1-0.5,2.9c-0.5,0.8-1.2,1.3-2.1,1.7c0.9-0.1,1.6-0.1,2.1,0.1
									c0.9,0.3,1.5,1.2,1.7,2.6l0.2,1.2c0,0.1,0.1,0.3,0.1,0.4c0,0.1,0.1,0.3,0.1,0.4l0.1,0.4l-3.3,1.2c-0.2-0.4-0.4-1-0.5-1.8
									c-0.2-0.8-0.3-1.4-0.5-1.6c-0.3-0.4-0.7-0.7-1.2-0.7c-0.3,0-0.7,0-1.2,0.2l-0.8,0.2l-0.8,0.3l0.9,4.9L609.8,318.4z
									 M614.2,305c-0.5,0-1.2,0.1-2.1,0.4l-0.8,0.3l0.7,4l1.4-0.5c0.8-0.3,1.4-0.7,1.8-1.2c0.4-0.5,0.5-1.1,0.4-1.9
									C615.4,305.4,614.9,305.1,614.2,305z"/>
							</g>
						</g>
					</g>
				</g>
				<path class="st0" d="M689.9,194.1c-19-48.3-54.8-86.3-113.9-109.6C560.4,78.2,537,72,522.4,71c66.3,21.7,116.4,60.9,137.5,114.7
					c48.8,124-74.1,278.4-274.7,344.8c-100.8,33.4-202,38.3-284,19.1c8.6,6.1,29.3,10.9,44.9,13.9c79.2,15.3,174.2,6.8,269.1-24.6
					C615.7,472.5,738.7,318,689.9,194.1"/>
			</g>
		</g>
	</g>
</g>
</svg>
