<?xml version="1.0" encoding="UTF-8"?>
<svg id="_레이어_2" data-name="레이어 2" xmlns="http://www.w3.org/2000/svg" viewBox="0 0 391.07 359.64">
  <defs>
    <style>
      .cls-1 {
        fill: #dc3f26;
      }
    </style>
  </defs>
  <g id="_레이어_1-2" data-name="레이어 1">
    <path class="cls-1" d="M181.89,91.16l47.05-62.05c1.81-2.39,5.59-.53,4.81,2.36l-24.72,90.84c-1.26,4.63,2.64,9.04,7.4,8.34l136.08-19.94c2.8-.41,4.3,3.19,2.03,4.89l-108.66,81.05c-3.74,2.79-3.53,8.46.41,10.97l143.51,91.27c2.69,1.71.77,5.85-2.28,4.91l-148.82-46.4c-4.49-1.4-8.98,2.17-8.63,6.86l6.85,92.45c.19,2.5-2.82,3.91-4.62,2.16l-80.64-78.15c-3.12-3.02-8.24-2.3-10.41,1.46l-41.31,71.65c-1.44,2.5-5.26,1.35-5.09-1.53l5.59-92.07c.25-4.08-3.2-7.42-7.27-7.04l-90.18,8.4c-2.78.26-4.11-3.33-1.83-4.94l85.41-60.31c3.76-2.66,3.76-8.23,0-10.89L3.04,126.45c-2.39-1.69-.8-5.45,2.08-4.91l95.47,17.93c4.05.76,7.82-2.31,7.89-6.43L110.82,3.59c.07-3.67,4.89-4.96,6.78-1.81l53.27,88.79c2.43,4.05,8.17,4.36,11.03.6Z"/>
  </g>
</svg>