<?xml version="1.0" encoding="UTF-8"?>
<svg id="_레이어_2" data-name="레이어 2" xmlns="http://www.w3.org/2000/svg" viewBox="0 0 214.91 232.12">
  <defs>
    <style>
      .cls-1 {
        fill: #08a252;
      }
    </style>
  </defs>
  <g id="_레이어_1-2" data-name="레이어 1">
    <path class="cls-1" d="M74.88,167.08l-42.18,14.02c-1.62.54-2.8-1.56-1.5-2.66l40.96-34.78c2.09-1.77,1.67-5.11-.79-6.32L.87,102.8c-1.45-.71-.99-2.89.62-2.95l77.31-3.08c2.66-.11,4.39-2.84,3.35-5.29L44.06,2.18c-.71-1.67,1.53-3,2.66-1.58l55.08,69.88c1.66,2.11,4.93,1.88,6.28-.44l26.61-45.73c.72-1.24,2.59-.93,2.87.47l12.74,62.82c.49,2.43,3.14,3.75,5.37,2.67l42.57-20.39c1.48-.71,2.91,1.06,1.9,2.36l-32.35,41.54c-1.43,1.84-.89,4.53,1.15,5.66l45.16,25.15c1.39.78.86,2.9-.74,2.92l-59.67.83c-2.63.04-4.43,2.66-3.51,5.13l20.28,54.73c.58,1.57-1.38,2.82-2.56,1.64l-39.16-39.26c-1.66-1.67-4.43-1.44-5.79.48l-42.88,60.19c-1.21,1.7-3.9.75-3.78-1.34l3.58-58.99c.16-2.69-2.44-4.69-5-3.84Z"/>
  </g>
</svg>