<?xml version="1.0" encoding="UTF-8"?>
<svg id="_레이어_2" data-name="레이어 2" xmlns="http://www.w3.org/2000/svg" viewBox="0 0 446.59 539.73">
  <defs>
    <style>
      .cls-1 {
        fill: #fbc94b;
      }
    </style>
  </defs>
  <g id="_레이어_1-2" data-name="레이어 1">
    <path class="cls-1" d="M107.18,375.34l-99.83-3.15c-3.85-.12-4.71-5.46-1.09-6.78l113.37-41.57c5.78-2.12,7.49-9.48,3.24-13.93L.99,182.37c-2.51-2.63.15-6.86,3.61-5.75l165.44,53.48c5.69,1.84,11.47-2.59,11.17-8.57L170.14,3.68c-.21-4.08,5.56-5.15,6.82-1.26l61.94,190.11c1.87,5.74,8.93,7.78,13.58,3.94l91.61-75.8c2.48-2.05,6.18.05,5.69,3.23l-21.89,142.36c-.85,5.5,3.71,10.33,9.25,9.81l105.61-9.97c3.68-.35,5.31,4.5,2.18,6.45l-100.45,62.5c-4.45,2.77-5.38,8.86-1.97,12.83l75.73,88.08c2.34,2.72-.44,6.77-3.82,5.58l-126.49-44.56c-5.57-1.96-11.4,2.18-11.39,8.08l.31,131.16c0,3.76-5.11,4.89-6.68,1.47l-52.12-113.17c-2.21-4.81-8.22-6.47-12.59-3.48l-137.13,93.65c-3.88,2.65-8.82-1.44-6.93-5.75l53.32-121.63c2.43-5.54-1.51-11.78-7.56-11.98Z"/>
  </g>
</svg>