<?xml version="1.0" encoding="UTF-8"?>
<svg id="_레이어_2" data-name="레이어 2" xmlns="http://www.w3.org/2000/svg" viewBox="0 0 283.44 289.19">
  <defs>
    <style>
      .cls-1 {
        fill: #0dcff8;
      }
    </style>
  </defs>
  <g id="_레이어_1-2" data-name="레이어 1">
    <path class="cls-1" d="M279.93,150.53c-10.98-30.3-44.45-45.96-74.75-34.98-26.56,9.63-41.87,36.54-37.85,63.44l-59.14,21.43c-7.19-11.82-18.23-20.43-30.83-24.77l2.72-59.63c26.89-4.16,48.02-26.78,49.31-55.01C130.86,28.82,105.95,1.53,73.76.06,41.56-1.41,14.27,23.5,12.8,55.7c-1.29,28.23,17.7,52.68,44.09,59.27l-2.63,57.65c-5.27.37-10.57,1.46-15.78,3.34C8.19,186.94-7.47,220.4,3.51,250.7s44.45,45.96,74.75,34.98c26.56-9.63,41.87-36.54,37.85-63.44l59.14-21.43c14.15,23.24,43.14,34.09,69.7,24.47,30.3-10.98,45.96-44.45,34.98-74.75Z"/>
  </g>
</svg>