<?xml version="1.0" encoding="UTF-8" standalone="no"?>
<svg
   xmlns:dc="http://purl.org/dc/elements/1.1/"
   xmlns:cc="http://creativecommons.org/ns#"
   xmlns:rdf="http://www.w3.org/1999/02/22-rdf-syntax-ns#"
   xmlns:svg="http://www.w3.org/2000/svg"
   xmlns="http://www.w3.org/2000/svg"
   viewBox="0 0 125 12.275"
   height="12.275"
   width="125"
   xml:space="preserve"
   version="1.1"
   id="svg2"><metadata
     id="metadata8"><rdf:RDF><cc:Work
         rdf:about=""><dc:format>image/svg+xml</dc:format><dc:type
           rdf:resource="http://purl.org/dc/dcmitype/StillImage" /></cc:Work></rdf:RDF></metadata><defs
     id="defs6" /><g
     transform="matrix(1.25,0,0,-1.25,0,12.275)"
     id="g10"><g
       transform="scale(0.1,0.1)"
       id="g12"><path
         id="path14"
         style="fill:#231f1f;fill-opacity:1;fill-rule:nonzero;stroke:none"
         d="M 0.0117188,0.0078125 C 0,32.7148 0,65.418 0.0117188,98.125 29.3008,98.0938 58.5977,98.1055 87.9063,98.1133 c 6.1093,-0.0391 12.1057,-2.6836 16.4027,-7 C 117.844,77.3516 117.945,52.5391 104.125,38.9336 99.6289,34.4141 93.3164,31.9805 86.9648,31.9414 75.2773,31.7578 63.5859,31.9141 51.8945,31.8633 44.2539,39.6875 36.4063,47.3047 28.7539,55.1055 c 19.7266,-0.0078 39.4609,0.0429 59.1875,-0.0274 3.9219,3.3789 3.625,9.1602 3.1133,13.8282 -0.3516,2.4414 -1.1953,5.9179 -4.1641,6.1328 -21.2695,0.125 -42.5547,-0.0196 -63.8242,0.0781 -0.0781,-25.0274 -0.0586,-50.0703 -0.0117,-75.0976687 -7.6875,0 -15.3672,0.0195312 -23.0429812,-0.0117188 l 0,0" /><path
         id="path16"
         style="fill:#231f1f;fill-opacity:1;fill-rule:nonzero;stroke:none"
         d="m 233.711,98.1328 c 8.227,-0.0469 16.465,-0.0195 24.703,-0.0195 6.938,-19.3633 13.836,-38.7383 20.649,-58.1328 6.445,18.5039 12.914,36.9843 19.312,55.5078 0.531,1.043 0.629,3.1055 2.363,2.6172 7.66,0.039 15.325,-0.0313 22.989,0.0273 6.824,-19.3359 13.668,-38.668 20.531,-58.0078 7.097,19.2969 14.012,38.6563 20.984,57.9805 8.176,0.0195 16.36,-0.0196 24.531,0.0273 C 378.059,65.418 366.238,32.7539 354.512,0.03125 347.805,0.0195313 341.105,0 334.398,0.0390625 326.926,20.9844 319.395,41.9141 311.887,62.8516 304.297,41.9414 296.852,20.9688 289.324,0.03125 282.566,0.0195313 275.813,0.0390625 269.055,0.0195313 257.242,32.7148 245.508,65.4375 233.711,98.1328 l 0,0" /><path
         id="path18"
         style="fill:#231f1f;fill-opacity:1;fill-rule:nonzero;stroke:none"
         d="m 394.199,0.0078125 c 0.012,32.7069875 0,65.4101875 0.012,98.1171875 33.16,-0.0195 66.336,-0.0391 99.5,0.0078 -0.02,-7.6836 -0.039,-15.3594 -0.012,-23.0547 -25.484,0.0274 -50.965,-0.0195 -76.453,0.0274 -0.027,-4.793 -0.019,-9.5977 -0.039,-14.4024 23.801,-0.0312 47.59,-0.0117 71.379,-0.0117 -0.012,-7.7539 -0.023,-15.5078 -0.012,-23.2617 -23.777,0 -47.558,0.0195 -71.347,0 0,-4.793 -0.02,-9.5859 0.007,-14.3828 25.5,-0.0117 50.981,0.0078 76.477,-0.0117 -0.02,-7.6758 -0.027,-15.32817 0,-23.00395 -33.176,-0.0234375 -66.34,0.0273438 -99.512,-0.0234375 l 0,0" /><path
         id="path20"
         style="fill:#231f1f;fill-opacity:1;fill-rule:nonzero;stroke:none"
         d="m 503.215,98.1133 c 28.562,-0.0195 57.137,-0.0078 85.703,0 5.086,0.1289 10.379,0.1758 15.098,-2.0391 8.582,-3.8398 14.082,-12.6054 16.05,-21.5625 2.329,-11.164 0.747,-23.7304 -6.57,-32.8125 -4.094,-5.4179 -10.469,-9.0156 -17.246,-9.5312 -3.895,-0.2032 -7.805,-0.0196 -11.687,-0.0782 C 594.18,21.4063 603.809,10.7227 613.418,0.03125 602.832,-0.0117188 592.234,0.0585938 581.641,0.0195313 565.305,18.418 548.867,36.7266 532.52,55.1055 c 19.777,0.0429 39.558,-0.0469 59.343,0.0508 3.535,-0.1758 5.5,3.496 5.793,6.5625 0.34,3.8554 0.535,8.2109 -1.797,11.5117 -1.132,1.6328 -3.23,1.9179 -5.046,1.875 -21.528,-0.0391 -43.04,-0.0078 -64.551,-0.0274 C 526.199,50.0469 526.25,25.0195 526.23,0 c -7.675,0.046875 -15.363,0.0195313 -23.039,0.03125 0.063,32.69145 0.012,65.38675 0.024,98.08205 l 0,0" /><path
         id="path22"
         style="fill:#231f1f;fill-opacity:1;fill-rule:nonzero;stroke:none"
         d="m 866.563,98.0859 c 33.117,-0.0117 66.23,-0.0117 99.355,0 0.039,-7.6484 -0.012,-15.2929 0.02,-22.9218 -25.469,-0.0157 -50.95,0.0312 -76.426,-0.0157 -0.032,-4.8046 -0.039,-9.6211 -0.008,-14.4336 17.305,-0.0312 34.598,-0.0507 51.902,0 6.414,-0.0234 12.832,-0.0312 19.258,-0.0117 0,-7.7539 -0.012,-15.5078 0,-23.2617 -19.941,-0.0469 -39.894,0.0977 -59.836,-0.0703 -3.777,0.0312 -7.558,0.0781 -11.324,0.0703 -0.039,-4.875 -0.149,-9.7461 -0.18,-14.6289 25.489,0.1484 50.989,0.1055 76.477,0.0469 0.137,-7.6172 -0.117,-15.2344 0.183,-22.8398687 -33.164,0 -66.328,0.0117187 -99.492,0 C 866.73,32.707 866.465,65.3906 866.563,98.0859 l 0,0" /><path
         id="path24"
         style="fill:#231f1f;fill-opacity:1;fill-rule:nonzero;stroke:none"
         d="m 650.48,69.9805 c -0.312,-5.2461 -0.07,-10.5078 -0.097,-15.7696 23.015,-0.0507 46.035,-0.0507 69.058,0.0079 -0.195,5.5664 0.414,11.1835 -0.347,16.7265 -0.317,2.6563 -2.754,4.582 -5.422,4.2188 -19.57,-0.0469 -39.152,0.0898 -58.723,-0.0743 -2.769,0.2227 -4.429,-2.6601 -4.469,-5.1093 l 0,0 z m -22.199,6.6289 c 2.742,10.9883 12.168,20.957 23.953,21.457 21.059,0.0781 42.121,0.1367 63.176,0.1172 1.985,-0.0195 3.977,-0.0508 5.93,-0.5078 12.515,-3.2735 21.121,-15.8399 21.062,-28.5469 C 742.395,46.1133 742.395,23.0859 742.395,0.0664063 734.773,0.0390625 727.156,0.105469 719.551,0.0078125 719.309,10.4023 719.504,20.7891 719.426,31.1914 c -23.02,0.0899 -46.035,-0.0117 -69.043,0.0469 -0.07,-10.3985 0,-20.7891 -0.039,-31.191425 -7.656,0.0195313 -15.305,0 -22.961,0.0117188 C 627.355,8.42578 627.48,16.7969 627.285,25.1563 c 0.07,12.1562 0.02,24.3164 0.028,36.4843 0.07,5 -0.387,10.086 0.968,14.9688 l 0,0" /><path
         id="path26"
         style="fill:#231f1f;fill-opacity:1;fill-rule:nonzero;stroke:none"
         d="m 774.23,75.1484 c -0.05,-17.3945 -0.05,-34.789 0,-52.1796 17.293,0.039 34.579,0.0195 51.875,0 2.813,0.0273 6.063,0.3984 7.965,2.7539 1.672,1.9257 1.528,4.6562 1.606,7.039 -0.051,11.1836 -0.039,22.3555 0,33.5352 -0.078,2.1015 -0.039,4.4648 -1.543,6.1054 -1.899,2.4493 -5.207,2.8047 -8.07,2.7813 -17.286,-0.0469 -34.559,0.0117 -51.833,-0.0352 l 0,0 z m -23.175,23.0235 c 13.828,0.0312 27.656,-0.0078 41.484,0.0312 9.016,-0.2265 18.027,-0.0976 27.039,-0.1289 6.02,-0.039 12.246,0.5196 18.051,-1.5312 11.402,-3.6914 20.379,-14.4453 21.016,-26.5547 0.398,-9.2852 0.039,-18.5899 0.156,-27.8906 -0.141,-7.2539 0.75,-14.8047 -1.797,-21.7774 -1.938,-6.0625 -6.496,-10.66405 -11.066,-14.84374 -1.719,-1.27734 -3.633,-2.30468 -5.586,-3.11328 -9.102,-3.253905 -18.821,-2.140624 -28.274,-2.3046862 -20.34,0.03125 -40.683,-0.0507813 -61.023,0.0468752 -0.032,32.687531 -0.039,65.382831 0,98.066431 l 0,0" /><path
         id="path28"
         style="fill:#231f1f;fill-opacity:1;fill-rule:nonzero;stroke:none"
         d="m 147.617,74.4336 c -3.375,-1.1523 -4.758,-4.8047 -4.648,-8.1172 -0.024,-11.1601 0.011,-22.3242 -0.016,-33.4961 0.012,-2.8711 0.332,-6.2773 2.891,-8.0859 2.304,-1.5899 5.277,-1.6602 7.984,-1.7071 16.469,0.0274 32.926,0.0079 49.391,0.0079 2.844,0.039 6.023,0.3125 8.219,2.3437 1.929,1.9453 2.035,4.8281 1.96,7.3828 -0.07,11.4766 -0.007,22.961 -0.031,34.4336 0.063,2.375 -0.738,4.9531 -2.797,6.3008 -2.117,1.582 -4.871,1.582 -7.382,1.6211 -15.528,-0.0586 -31.043,-0.0274 -46.555,-0.0195 -3.004,-0.0586 -6.11,0.3125 -9.016,-0.6641 l 0,0 z m -3.539,22.918 c 4.422,1.0664 8.996,0.7343 13.5,0.7539 14.254,0 28.516,0 42.766,0 4.008,-0.0196 8.078,0.2539 12.015,-0.7227 7.754,-1.7187 14.649,-6.6133 19.188,-13.0781 3.625,-5.2539 5.141,-11.6992 5.094,-18.0156 -0.063,-12.1094 0.054,-24.2188 -0.063,-36.3282 -0.133,-7.7265 -3.293,-15.3789 -8.937,-20.71481 -5.911,-5.9375 -14.262,-9.2578088 -22.629,-9.2265587 -17.992,0.0117187 -35.981,0 -53.961,0 -8.332,0.0390625 -16.547,3.4843787 -22.367,9.4453087 -5.75,5.52346 -8.805,13.49606 -8.75,21.42186 0.046,12.6992 -0.075,25.3946 0.054,38.086 0.211,13.5742 11.059,25.5273 24.09,28.3789 l 0,0" /><path
         id="path30"
         style="fill:#231f1f;fill-opacity:1;fill-rule:nonzero;stroke:none"
         d="m 987.148,12.1367 c 0,0.8594 0.008,2.5821 0.008,3.4375 1.36,-0.3906 3.391,-0.2539 3.379,-2.1875 -0.808,-1.0742 -2.242,-0.9648 -3.387,-1.25 z m 4.29,-2.0703 c 1.316,1.4766 2.761,3.5078 1.55,5.5274 -1.66,3.2343 -5.945,1.789 -8.84,2.1406 -0.066,-4.1211 -0.039,-8.24221 -0.039,-12.37502 0.735,-0.00782 2.207,-0.00782 2.954,-0.00782 0.039,1.76563 0.156,3.52344 0.339,5.27344 1.211,-1.61328 2.254,-3.34766 3.008,-5.24609 0.84,0 2.528,-0.01953 3.379,-0.02735 -0.801,1.58203 -1.582,3.14453 -2.351,4.71484" /><path
         id="path32"
         style="fill:#231f1f;fill-opacity:1;fill-rule:nonzero;stroke:none"
         d="m 996.934,11.4141 c 0.332,-6.25785 -7.414,-10.94535 -12.723,-7.44926 -6.086,3.19141 -5.488,13.34766 1.031,15.66406 5.395,2.4609 12.207,-2.3047 11.692,-8.2148 z m 2.988,1.1172 c -0.254,7.4492 -8.789,12.6757 -15.606,9.8203 -4.804,-1.7071 -7.921,-6.9336 -7.336,-11.9493 0.454,-5.50777 5.375,-10.187456 10.903,-10.37105 6.707,-0.507813 12.887,5.76953 12.039,12.50005" /><path
         id="path34"
         style="fill:#ffffff;fill-opacity:1;fill-rule:nonzero;stroke:none"
         d="m 987.148,12.1367 c 0,0.8594 0.008,2.5821 0.008,3.4375 1.36,-0.3906 3.391,-0.2539 3.379,-2.1875 -0.808,-1.0742 -2.242,-0.9648 -3.387,-1.25 z m 4.29,-2.0703 c 1.316,1.4766 2.761,3.5078 1.55,5.5274 -1.66,3.2343 -5.945,1.789 -8.84,2.1406 -0.066,-4.1211 -0.039,-8.24221 -0.039,-12.37502 0.735,-0.00782 2.207,-0.00782 2.954,-0.00782 0.039,1.76563 0.156,3.52344 0.339,5.27344 1.211,-1.61328 2.254,-3.34766 3.008,-5.24609 0.84,0 2.528,-0.01953 3.379,-0.02735 -0.801,1.58203 -1.582,3.14453 -2.351,4.71484" /><path
         id="path36"
         style="fill:#231f1f;fill-opacity:1;fill-rule:nonzero;stroke:none"
         d="m 987.148,12.1367 c 0,0.8594 0.008,2.5821 0.008,3.4375 1.36,-0.3906 3.391,-0.2539 3.379,-2.1875 -0.808,-1.0742 -2.242,-0.9648 -3.387,-1.25 z m 4.29,-2.0703 c 1.316,1.4766 2.761,3.5078 1.55,5.5274 -1.66,3.2343 -5.945,1.789 -8.84,2.1406 -0.066,-4.1211 -0.039,-8.24221 -0.039,-12.37502 0.735,-0.00782 2.207,-0.00782 2.954,-0.00782 0.039,1.76563 0.156,3.52344 0.339,5.27344 1.211,-1.61328 2.254,-3.34766 3.008,-5.24609 0.84,0 2.528,-0.01953 3.379,-0.02735 -0.801,1.58203 -1.582,3.14453 -2.351,4.71484" /></g></g></svg>