<svg width="261" height="197" viewBox="0 0 261 197" fill="none" xmlns="http://www.w3.org/2000/svg">
<path d="M236.414 160.672L256.843 123.982L247.259 116.448C248.627 77.7716 209.126 36.6837 152.032 20.3948C115.713 10.0241 80.14 11.9318 54.1046 23.3369L40.5872 15.9148C40.5872 15.9148 24.2686 29.6444 23.1119 30.168C23.1119 30.168 23.987 38.7618 24.658 45.3966C20.8814 50.3152 17.9451 55.7486 16.0052 61.6467L6.05257 56.3593L4.08591 72.1099L13.4622 82.1915C13.5976 84.3464 13.8637 86.5141 14.2515 88.68L6.60983 89.4437L12.3706 104.752L22.0894 110.37C25.0387 115.8 28.6953 121.107 32.9849 126.22L30.3315 133.546L43.5863 146.866L53.8195 145.796C57.1546 148.315 60.6646 150.728 64.3331 153.023L64.5291 162.797L81.2923 171.083L91.8028 167.079L90.5026 166.333C94.7751 168.055 99.1824 169.644 103.699 171.073L107.87 179.001L126.304 182.652L130.247 177.317C135.426 178.13 140.546 178.689 145.587 179.002L152.424 184.713L168.781 184.856L167.255 178.905C173.229 178.46 179.03 177.648 184.582 176.481L195.546 181.042L214.671 174.652L207.199 169.296C213.486 166.486 219.196 163.111 224.225 159.217L236.413 160.657L236.414 160.672ZM135.294 66.3081C142.069 68.2416 148.502 70.5977 154.551 73.3037L131.218 99.612C129.565 99.0379 127.868 98.4824 126.13 97.991C105.768 92.1784 86.1776 94.7083 75.8825 103.293L41.1858 83.8006C55.1158 62.5163 94.2895 54.5979 135.301 66.3L135.294 66.3081ZM85.5809 108.745C93.5663 103.731 106.741 102.549 120.399 106.445C121.662 106.805 122.897 107.198 124.097 107.632L110.634 122.804L85.5803 108.737L85.5809 108.745ZM102.714 131.739L92.8984 142.788C82.2776 136.05 76.2257 126.665 78.2063 118.324L102.714 131.732L102.714 131.739ZM117.925 140.06L136.359 150.146C128.597 152.513 118.485 152.49 108.101 149.524C107.368 149.306 106.635 149.095 105.915 148.853L117.925 140.068L117.925 140.06ZM128.094 132.614L144.514 120.6C149.52 126.199 151.764 132.476 150.132 138.214C149.587 140.139 148.637 141.874 147.338 143.415L128.094 132.614ZM36.4268 95.4661L69.1014 113.353C65.8471 124.857 74.1229 137.974 88.8869 147.328L80.5666 156.706C50.5764 141.205 32.3115 116.978 36.4268 95.4661ZM106.562 166.957C100.582 165.252 94.8599 163.215 89.4435 160.894L100.068 153.123C103.046 154.373 106.181 155.474 109.447 156.404C123.987 160.568 138.129 160.455 148.775 156.929L170.736 168.954C152.866 173.921 130.011 173.66 106.562 166.957ZM204.781 140.571C201.928 150.549 194.425 158.469 183.835 163.905L160.223 150.649C163.244 147.992 165.398 144.777 166.448 141.082C169.078 131.868 164.317 121.621 154.748 113.102L183.936 91.7487C200.873 106.547 209.374 124.465 204.78 140.555L204.781 140.571Z" fill="#2F0D13"/>
</svg>
