<?xml version="1.0" encoding="UTF-8"?>
<svg id="_레이어_2" data-name="레이어 2" xmlns="http://www.w3.org/2000/svg" viewBox="0 0 431.18 526.59">
  <defs>
    <style>
      .cls-1 {
        fill: none;
        stroke: #000;
        stroke-miterlimit: 10;
        stroke-width: 3px;
      }
    </style>
  </defs>
  <g id="_레이어_1-2" data-name="레이어 1">
    <g>
      <circle class="cls-1" cx="188.2" cy="338.39" r="186.69"/>
      <circle class="cls-1" cx="188.2" cy="338.39" r="99.62"/>
      <circle class="cls-1" cx="188.2" cy="338.39" r="93.75"/>
      <circle cx="188.2" cy="338.39" r="10.04"/>
      <circle cx="421.14" cy="10.04" r="10.04"/>
      <circle class="cls-1" cx="340.59" cy="446.56" r="10.04"/>
      <circle class="cls-1" cx="385.68" cy="478.49" r="32.76"/>
      <circle class="cls-1" cx="385.68" cy="478.49" r="12.8"/>
      <circle cx="385.68" cy="478.49" r="7.35"/>
      <circle class="cls-1" cx="296.69" cy="185.47" r="16.99"/>
      <line class="cls-1" x1="421.14" y1="10.04" x2="80.18" y2="490.65"/>
      <line class="cls-1" x1="188.2" y1="338.39" x2="385.68" y2="478.49"/>
      <line class="cls-1" x1="364.9" y1="59.95" x2="282.36" y2="176.29"/>
      <g>
        <line class="cls-1" x1="403.1" y1="18.13" x2="411.29" y2="23.93"/>
        <line class="cls-1" x1="399.47" y1="23.25" x2="407.65" y2="29.05"/>
        <line class="cls-1" x1="395.84" y1="28.36" x2="404.02" y2="34.17"/>
        <line class="cls-1" x1="392.21" y1="33.48" x2="400.39" y2="39.29"/>
        <line class="cls-1" x1="388.57" y1="38.6" x2="396.76" y2="44.41"/>
        <line class="cls-1" x1="384.94" y1="43.72" x2="393.13" y2="49.53"/>
        <line class="cls-1" x1="381.31" y1="48.84" x2="389.5" y2="54.65"/>
        <line class="cls-1" x1="377.68" y1="53.96" x2="385.87" y2="59.77"/>
        <line class="cls-1" x1="374.05" y1="59.08" x2="382.24" y2="64.88"/>
        <line class="cls-1" x1="370.42" y1="64.19" x2="378.6" y2="70"/>
        <line class="cls-1" x1="366.79" y1="69.31" x2="374.97" y2="75.12"/>
        <line class="cls-1" x1="363.15" y1="74.43" x2="371.34" y2="80.24"/>
        <line class="cls-1" x1="359.52" y1="79.55" x2="367.71" y2="85.36"/>
        <line class="cls-1" x1="355.89" y1="84.67" x2="364.08" y2="90.48"/>
        <line class="cls-1" x1="352.26" y1="89.79" x2="360.45" y2="95.6"/>
        <line class="cls-1" x1="348.63" y1="94.91" x2="356.82" y2="100.71"/>
        <line class="cls-1" x1="345" y1="100.02" x2="353.19" y2="105.83"/>
        <line class="cls-1" x1="341.37" y1="105.14" x2="349.55" y2="110.95"/>
        <line class="cls-1" x1="337.74" y1="110.26" x2="345.92" y2="116.07"/>
        <line class="cls-1" x1="334.1" y1="115.38" x2="342.29" y2="121.19"/>
        <line class="cls-1" x1="330.47" y1="120.5" x2="338.66" y2="126.31"/>
        <line class="cls-1" x1="326.84" y1="125.62" x2="335.03" y2="131.43"/>
        <line class="cls-1" x1="323.21" y1="130.74" x2="331.4" y2="136.54"/>
        <line class="cls-1" x1="319.58" y1="135.86" x2="327.77" y2="141.66"/>
      </g>
      <circle class="cls-1" cx="296.69" cy="185.47" r="47.84"/>
    </g>
  </g>
</svg>