<?xml version="1.0" encoding="UTF-8"?>
<svg id="_레이어_2" data-name="레이어 2" xmlns="http://www.w3.org/2000/svg" viewBox="0 0 326.28 234.54">
  <defs>
    <style>
      .cls-1 {
        fill: #231815;
      }
    </style>
  </defs>
  <g id="_레이어_1-2" data-name="레이어 1">
    <path class="cls-1" d="M295.78,209.64l30.5-46.06-11.81-10.85c5.7-50.59-41.96-108.47-115.2-135.6C152.68-.14,105.83-1.23,70.53,11.1L53.55,0s-22.79,16.36-24.36,16.93c0,0,.28,11.36.49,20.13-5.45,6.07-9.85,12.9-12.99,20.44l-12.52-7.94L0,70.02l11.28,14.17c-.04,2.84.09,5.71.38,8.59l-10.1.23,6.01,20.66,12.18,8.35c3.32,7.42,7.58,14.75,12.69,21.89l-4.22,9.34,16.04,18.81,13.53-.37c4.12,3.64,8.48,7.16,13.06,10.54l-.73,12.84,21.15,12.56,14.19-4.19-1.63-1.11c5.43,2.69,11.05,5.22,16.83,7.55l4.67,10.82,23.81,6.65,5.71-6.6c6.71,1.59,13.37,2.84,19.95,3.76l8.39,8.18,21.44,1.84-1.4-7.96c7.88.02,15.57-.46,22.97-1.43l13.92,7.09,25.73-6.45-9.26-7.78c8.53-3.05,16.36-6.9,23.35-11.5l15.84,3.12ZM172.68,75.66c8.69,3.22,16.89,6.96,24.55,11.12l-33.26,32.15c-2.11-.92-4.28-1.82-6.51-2.64-26.12-9.68-52.07-8.34-66.44,1.88l-43.54-29.07c20.42-26.51,72.6-32.94,125.21-13.45ZM103.19,126.3c10.98-5.77,28.38-5.99,45.9.5,1.62.6,3.2,1.24,4.73,1.93l-19.19,18.54-31.44-20.98ZM123.34,158.19l-13.99,13.5c-13.25-9.91-20.24-22.83-16.8-33.57l30.79,20.06ZM142.45,170.64l23.16,15.09c-10.42,2.32-23.68,1.27-37-3.67-.94-.36-1.88-.71-2.8-1.1l16.64-10.31ZM156.54,161.9l22.75-14.1c6,7.85,8.31,16.31,5.59,23.67-.91,2.47-2.33,4.65-4.19,6.54l-24.15-16.11ZM40.06,103.92l41.05,26.76c-5.43,14.76,4.1,32.8,22.52,46.56l-11.86,11.46c-37.77-23.36-59.28-56.98-51.71-84.78ZM124.83,204.77c-7.67-2.84-14.97-6.09-21.84-9.68l14.72-9.12c3.78,1.94,7.78,3.7,11.97,5.25,18.65,6.93,37.21,8.21,51.53,4.66l27.59,17.99c-23.94,4.71-53.89,2.06-83.97-9.1ZM256.32,180.08c-4.75,12.8-15.39,22.43-29.83,28.49l-29.63-19.77c4.23-3.18,7.38-7.18,9.13-11.92,4.38-11.82-.83-25.74-12.52-37.88l40.44-25.06c20.72,21.12,30.06,45.48,22.41,66.12Z"/>
  </g>
</svg>